<svg xmlns="http://www.w3.org/2000/svg" width="1200" height="630" viewBox="0 0 1200 630" fill="none">
  <defs>
    <radialGradient id="bgGlow" cx="50%" cy="40%" r="60%">
      <stop offset="0%" stop-color="#10B981" stop-opacity="0.18" />
      <stop offset="60%" stop-color="#059669" stop-opacity="0.04" />
      <stop offset="100%" stop-color="#07090E" stop-opacity="0" />
    </radialGradient>
    <linearGradient id="cardGrad" x1="0" y1="0" x2="1" y2="1">
      <stop offset="0%" stop-color="#111827" stop-opacity="0.9" />
      <stop offset="100%" stop-color="#0B0F19" stop-opacity="0.95" />
    </linearGradient>
    <linearGradient id="textGrad" x1="0" y1="0" x2="1" y2="0">
      <stop offset="0%" stop-color="#34D399" />
      <stop offset="100%" stop-color="#10B981" />
    </linearGradient>
  </defs>

  <!-- Canvas Background -->
  <rect width="1200" height="630" fill="#07090E" />
  <circle cx="600" cy="300" r="450" fill="url(#bgGlow)" />

  <!-- Grid lines -->
  <g opacity="0.1" stroke="#10B981" stroke-width="1">
    <line x1="0" y1="105" x2="1200" y2="105" />
    <line x1="0" y1="210" x2="1200" y2="210" />
    <line x1="0" y1="315" x2="1200" y2="315" />
    <line x1="0" y1="420" x2="1200" y2="420" />
    <line x1="0" y1="525" x2="1200" y2="525" />
    <line x1="240" y1="0" x2="240" y2="630" />
    <line x1="480" y1="0" x2="480" y2="630" />
    <line x1="720" y1="0" x2="720" y2="630" />
    <line x1="960" y1="0" x2="960" y2="630" />
  </g>

  <!-- Central Card -->
  <rect x="140" y="85" width="920" height="460" rx="24" fill="url(#cardGrad)" stroke="#10B981" stroke-opacity="0.3" stroke-width="1.5" />

  <!-- Breadcrumbs Bar -->
  <g transform="translate(180, 140)">
    <text font-family="monospace" font-size="14" fill="#6EE7B7" letter-spacing="1">✦ ARFA DANIAL / PORTFOLIO › CYBERSECURITY SUITE › KEYVAULT</text>
  </g>

  <!-- Badge -->
  <g transform="translate(180, 175)">
    <rect width="210" height="32" rx="16" fill="#10B981" fill-opacity="0.15" stroke="#10B981" stroke-opacity="0.4" stroke-width="1" />
    <circle cx="20" cy="16" r="4" fill="#34D399" />
    <text x="34" y="21" font-family="monospace" font-size="12" font-weight="bold" fill="#34D399" letter-spacing="1">ZERO-KNOWLEDGE v1.0</text>
  </g>

  <!-- Title & Icon -->
  <g transform="translate(180, 260)">
    <!-- Key icon -->
    <circle cx="36" cy="32" r="32" fill="#10B981" fill-opacity="0.15" stroke="#10B981" stroke-opacity="0.3" stroke-width="1.5" />
    <path d="M36 18c-5 0-9 4-9 9 0 3.3 1.8 6.2 4.5 7.8V42c0 .6.4 1 1 1h7c.6 0 1-.4 1-1v-7.2c2.7-1.6 4.5-4.5 4.5-7.8 0-5-4-9-9-9zm0 5a4 4 0 110 8 4 4 0 010-8z" fill="#34D399" />
    
    <text x="90" y="44" font-family="sans-serif" font-size="46" font-weight="900" fill="url(#textGrad)" letter-spacing="-1">KEYVAULT</text>
  </g>

  <!-- Subtitle -->
  <g transform="translate(180, 335)">
    <text font-family="sans-serif" font-size="20" fill="#E2E8F0" font-weight="500">Zero-Knowledge Password Security &amp; Entropy Analyzer</text>
    <text y="30" font-family="sans-serif" font-size="15" fill="#94A3B8">Shannon Entropy • Hardware Hash Crack Benchmarks • Local K-Anonymity Breach Auditing</text>
  </g>

  <!-- Live Telemetry Pill Badges -->
  <g transform="translate(180, 420)">
    <rect width="180" height="42" rx="10" fill="#1E293B" stroke="#334155" />
    <text x="18" y="26" font-family="monospace" font-size="13" fill="#10B981">● 100% In-Browser</text>

    <rect x="200" width="190" height="42" rx="10" fill="#1E293B" stroke="#334155" />
    <text x="218" y="26" font-family="monospace" font-size="13" fill="#38BDF8">🛡 No Network Leaks</text>

    <rect x="410" width="180" height="42" rx="10" fill="#1E293B" stroke="#334155" />
    <text x="428" y="26" font-family="monospace" font-size="13" fill="#FBBF24">⚡ RTX 4090 Sims</text>
  </g>

  <!-- URL Tag -->
  <text x="920" y="510" text-anchor="end" font-family="monospace" font-size="14" fill="#64748B">pwsec-nyz.vercel.app</text>
</svg>
